<svg xmlns="http://www.w3.org/2000/svg" xml:lang="en" height="715.1633534049023pt" width="431.68pt" viewBox="-102.44000000000003 -5.24 431.68 715.1633534049023"><polygon points="28.349999999999994,40.5 28.671285767654854,40.497451085395966 28.992490653335867,40.489804983259496 29.313533795430775,40.4770636184559 29.634334373045427,40.45923019855565 29.954811626349958,40.43630921302683 30.274884876909695,40.40830643210496 30.594473547995467,40.37522890534039 30.913497184868415,40.3370849598236 31.23187547503402,40.29388419808888 31.549528268460335,40.24563749569698 31.866375597755336,40.19235699849721 32.1823376982983,40.134056119569806 32.4973350283201,40.07074953584926 32.81128828892744,40.002453184429484 33.12411844406589,39.92918425855172 33.43574674041685,39.850961203276206 33.74609472722321,39.76780371083882 34.05508427603895,39.67973271569356 34.36263760039756,39.586770389242496 34.668677275394366,39.48894013425414 34.97312625717778,39.38626657897204 35.27590790234479,39.27877557091464 35.5769459872354,39.16649417036841 35.87616472712163,39.04945064357546 36.17348879528585,38.92767445561777 36.46884334198392,38.80119626299941 36.762154013288196,38.670047905928996 37.05334696980572,38.53426240030407 37.342348905266924,38.39387392939955 37.629087064980055,38.2489178352622 37.91348926414682,38.09943060981354 38.19548390603449,37.94544988566314 38.475,37.787014426634876 38.75196717936147,37.624164118008274 39.02631571911267,37.45693995647766 39.29797655347585,37.28538403983141 39.56688129328873,37.109539556354115 39.832962243221104,36.92945077395411 40.096152418816764,36.74516302901929 40.35638556335647,36.55672271500393 40.613596164537746,36.364177270749344 40.867719470967245,36.16757516854145 41.11869150846158,35.96696590190807 41.36644909615242,35.762399973159305 41.61092986239202,35.55392888067372 41.8520722604549,35.34160510593403 42.08981558403192,35.12548210031505 42.32409998251277,34.90561427162766 42.554866476053,34.68205697042197 42.78205697042197,34.454866476053006 43.005614271627664,34.22409998251277 43.22548210031505,33.98981558403192 43.44160510593403,33.75207226045491 43.653928880673725,33.51092986239202 43.862399973159306,33.26644909615242 44.06696590190807,33.01869150846158 44.26757516854145,32.76771947096726 44.464177270749346,32.51359616453775 44.65672271500393,32.25638556335647 44.84516302901929,31.996152418816763 45.02945077395411,31.732962243221106 45.209539556354116,31.46688129328873 45.385384039831415,31.19797655347585 45.55693995647766,30.926315719112672 45.72416411800828,30.651967179361478 45.88701442663488,30.374999999999996 46.045449885663146,30.095483906034488 46.19943060981354,29.813489264146824 46.34891783526219,29.52908706498006 46.493873929399555,29.242348905266923 46.63426240030408,28.95334696980572 46.770047905929,28.6621540132882 46.901196262999406,28.368843341983922 47.02767445561777,28.07348879528585 47.14945064357547,27.776164727121632 47.266494170368404,27.476945987235403 47.37877557091464,27.175907902344793 47.486266578972035,26.873126257177784 47.58894013425414,26.568677275394364 47.68677038924249,26.262637600397564 47.77973271569357,25.955084276038946 47.86780371083883,25.646094727223204 47.950961203276215,25.33574674041685 48.029184258551716,25.024118444065902 48.10245318442949,24.711288288927445 48.17074953584927,24.39733502832011 48.234056119569814,24.082337698298307 48.29235699849721,23.76637559775534 48.345637495696984,23.44952826846033 48.39388419808888,23.131875475034022 48.4370849598236,22.813497184868424 48.475228905340394,22.494473547995476 48.508306432104966,22.174884876909697 48.53630921302683,21.854811626349964 48.55923019855565,21.53433437304543 48.57706361845591,21.213533795430777 48.5898049832595,20.892490653335866 48.59745108539596,20.571285767654857 48.599999999999994,20.25 48.599999999999994,20.250000000000004 48.59745108539596,19.928714232345143 48.5898049832595,19.60750934666413 48.5770636184559,19.286466204569223 48.55923019855565,18.96566562695457 48.53630921302683,18.645188373650036 48.50830643210496,18.325115123090303 48.475228905340394,18.00552645200453 48.4370849598236,17.686502815131583 48.39388419808888,17.368124524965978 48.34563749569698,17.050471731539666 48.292356998497205,16.733624402244665 48.23405611956981,16.417662301701696 48.17074953584926,16.102664971679893 48.102453184429486,15.788711711072555 48.02918425855171,15.475881555934102 47.95096120327621,15.164253259583148 47.86780371083882,14.853905272776796 47.77973271569356,14.54491572396105 47.68677038924248,14.237362399602437 47.58894013425414,13.93132272460564 47.48626657897203,13.626873742822214 47.37877557091464,13.324092097655212 47.266494170368404,13.023054012764598 47.14945064357546,12.72383527287837 47.02767445561777,12.426511204714147 46.901196262999406,12.131156658016074 46.770047905929,11.837845986711802 46.634262400304074,11.546653030194278 46.49387392939955,11.257651094733077 46.34891783526219,10.970912935019943 46.19943060981353,10.686510735853178 46.04544988566314,10.404516093965512 45.88701442663487,10.125000000000004 45.724164118008275,9.848032820638526 45.556939956477656,9.573684280887328 45.385384039831415,9.302023446524153 45.20953955635411,9.03311870671127 45.02945077395411,8.767037756778896 44.84516302901929,8.50384758118324 44.65672271500393,8.243614436643535 44.464177270749346,7.986403835462252 44.26757516854145,7.732280529032749 44.06696590190807,7.481308491538423 43.8623999731593,7.233550903847584 43.653928880673725,6.989070137607979 43.44160510593403,6.747927739545099 43.22548210031505,6.510184415968076 43.005614271627664,6.275900017487235 42.78205697042197,6.0451335239469985 42.554866476053,5.817943029578029 42.32409998251277,5.594385728372332 42.08981558403192,5.374517899684953 41.8520722604549,5.158394894065972 41.61092986239202,4.946071119326274 41.366449096152415,4.737600026840699 41.11869150846158,4.533034098091928 40.86771947096725,4.332424831458559 40.613596164537746,4.135822729250653 40.35638556335647,3.9432772849960687 40.09615241881676,3.754836970980704 39.83296224322111,3.570549226045892 39.56688129328872,3.390460443645885 39.29797655347585,3.214615960168585 39.02631571911267,3.0430600435223383 38.75196717936147,2.8758358819917187 38.474999999999994,2.712985573365119 38.19548390603449,2.55455011433686 37.91348926414682,2.4005693901864675 37.629087064980055,2.251082164737804 37.34234890526692,2.106126070600451 37.05334696980572,1.9657375996959239 36.762154013288196,1.8299520940710068 36.46884334198392,1.698803737000593 36.17348879528585,1.5723255443822304 35.876164727121626,1.4505493564245322 35.5769459872354,1.3335058296315925 35.27590790234479,1.2212244290853598 34.97312625717778,1.1137334210279677 34.66867727539435,1.0110598657458572 34.36263760039756,0.9132296107575081 34.05508427603894,0.8202672843064331 33.7460947272232,0.7321962891611767 33.43574674041685,0.6490387967237891 33.12411844406589,0.5708157414482865 32.81128828892744,0.49754681557051045 32.4973350283201,0.42925046415073537 32.182337698298305,0.3659438804301932 31.866375597755336,0.3076430015027925 31.549528268460328,0.25436250430301743 31.23187547503402,0.20611580191111809 30.91349718486842,0.16291504017639794 30.59447354799547,0.1247710946596094 30.27488487690969,0.09169356789503977 29.954811626349958,0.0636907869731694 29.63433437304543,0.04076980144434419 29.313533795430775,0.0229363815440919 28.992490653335864,0.010195016740507023 28.671285767654854,0.0025489146040348133 28.349999999999994,3.597122599785507e-15 -28.34999999999999,3.597122599785507e-15 -28.671285767654854,0.0025489146040348133 -28.992490653335867,0.010195016740503425 -29.313533795430775,0.0229363815440919 -29.634334373045427,0.04076980144434419 -29.954811626349954,0.0636907869731694 -30.27488487690969,0.09169356789503977 -30.594473547995467,0.1247710946596094 -30.913497184868415,0.16291504017639794 -31.231875475034016,0.20611580191111448 -31.54952826846033,0.25436250430301743 -31.866375597755333,0.30764300150278895 -32.1823376982983,0.3659438804301932 -32.4973350283201,0.42925046415073176 -32.81128828892744,0.49754681557051045 -33.12411844406589,0.5708157414482828 -33.435746740416846,0.6490387967237891 -33.7460947272232,0.7321962891611767 -34.05508427603894,0.8202672843064296 -34.362637600397555,0.9132296107575044 -34.66867727539435,1.0110598657458572 -34.973126257177775,1.1137334210279641 -35.27590790234479,1.221224429085356 -35.5769459872354,1.3335058296315925 -35.87616472712163,1.4505493564245322 -36.17348879528585,1.5723255443822304 -36.46884334198392,1.698803737000593 -36.762154013288196,1.8299520940710068 -37.053346969805716,1.9657375996959203 -37.34234890526691,2.1061260706004474 -37.629087064980055,2.251082164737804 -37.91348926414682,2.4005693901864675 -38.19548390603448,2.5545501143368563 -38.475,2.7129855733651156 -38.75196717936147,2.875835881991715 -39.02631571911267,3.043060043522331 -39.29797655347584,3.2146159601685778 -39.56688129328873,3.3904604436458814 -39.8329622432211,3.5705492260458813 -40.09615241881676,3.754836970980704 -40.35638556335647,3.943277284996065 -40.61359616453774,4.135822729250649 -40.867719470967245,4.332424831458552 -41.11869150846157,4.533034098091925 -41.366449096152415,4.737600026840692 -41.61092986239201,4.946071119326265 -41.8520722604549,5.158394894065968 -42.08981558403192,5.374517899684951 -42.32409998251277,5.594385728372329 -42.554866476053,5.817943029578025 -42.78205697042196,6.045133523946993 -43.005614271627664,6.275900017487231 -43.22548210031504,6.51018441596807 -43.44160510593403,6.747927739545099 -43.653928880673725,6.989070137607977 -43.862399973159306,7.233550903847578 -44.06696590190807,7.481308491538419 -44.26757516854144,7.732280529032742 -44.46417727074934,7.986403835462247 -44.65672271500393,8.243614436643528 -44.8451630290193,8.50384758118324 -45.0294507739541,8.767037756778887 -45.209539556354116,9.033118706711269 -45.385384039831415,9.30202344652415 -45.55693995647766,9.573684280887322 -45.724164118008275,9.848032820638519 -45.88701442663488,10.124999999999996 -46.045449885663146,10.404516093965512 -46.199430609813525,10.686510735853169 -46.34891783526219,10.97091293501994 -46.49387392939955,11.257651094733074 -46.634262400304074,11.546653030194275 -46.770047905929,11.837845986711796 -46.901196262999406,12.131156658016069 -47.02767445561777,12.426511204714147 -47.14945064357546,12.723835272878363 -47.266494170368404,13.023054012764597 -47.37877557091464,13.3240920976552 -47.486266578972035,13.62687374282221 -47.58894013425414,13.931322724605634 -47.68677038924249,14.23736239960243 -47.77973271569357,14.544915723961052 -47.86780371083882,14.853905272776785 -47.950961203276215,15.164253259583147 -48.029184258551716,15.47588155593409 -48.10245318442949,15.788711711072551 -48.17074953584927,16.10266497167989 -48.23405611956981,16.417662301701693 -48.29235699849721,16.733624402244658 -48.345637495696984,17.05047173153966 -48.39388419808888,17.368124524965978 -48.4370849598236,17.68650281513157 -48.475228905340394,18.005526452004528 -48.508306432104966,18.3251151230903 -48.53630921302683,18.645188373650033 -48.55923019855565,18.965665626954564 -48.57706361845591,19.286466204569216 -48.5898049832595,19.60750934666413 -48.59745108539596,19.928714232345133 -48.599999999999994,20.25 -48.599999999999994,20.250000000000004 -48.59745108539597,20.57128576765486 -48.5898049832595,20.89249065333587 -48.57706361845592,21.21353379543078 -48.55923019855565,21.534334373045436 -48.53630921302683,21.85481162634997 -48.508306432104966,22.174884876909704 -48.475228905340394,22.494473547995476 -48.43708495982361,22.813497184868424 -48.393884198088884,23.131875475034022 -48.34563749569699,23.449528268460334 -48.29235699849722,23.766375597755335 -48.234056119569814,24.08233769829831 -48.17074953584927,24.397335028320114 -48.1024531844295,24.711288288927452 -48.029184258551716,25.024118444065902 -47.95096120327622,25.33574674041685 -47.867803710838835,25.646094727223208 -47.77973271569358,25.95508427603895 -47.686770389242504,26.26263760039757 -47.588940134254145,26.56867727539437 -47.486266578972035,26.87312625717779 -47.37877557091465,27.175907902344797 -47.26649417036841,27.476945987235407 -47.14945064357548,27.776164727121632 -47.02767445561777,28.073488795285854 -46.901196262999406,28.368843341983933 -46.770047905929,28.662154013288202 -46.63426240030408,28.95334696980573 -46.493873929399555,29.242348905266926 -46.3489178352622,29.529087064980065 -46.19943060981354,29.813489264146824 -46.045449885663146,30.09548390603449 -45.887014426634885,30.375000000000007 -45.72416411800829,30.651967179361474 -45.55693995647767,30.92631571911268 -45.385384039831415,31.197976553475854 -45.20953955635412,31.466881293288733 -45.02945077395412,31.73296224322111 -44.845163029019304,31.996152418816763 -44.656722715003944,32.25638556335647 -44.46417727074935,32.51359616453775 -44.26757516854145,32.76771947096726 -44.06696590190808,33.01869150846158 -43.862399973159306,33.26644909615243 -43.653928880673725,33.51092986239202 -43.44160510593404,33.75207226045491 -43.22548210031505,33.98981558403192 -43.00561427162767,34.22409998251277 -42.78205697042197,34.45486647605301 -42.554866476053,34.68205697042198 -42.32409998251277,34.90561427162767 -42.089815584031925,35.12548210031505 -41.852072260454904,35.341605105934036 -41.61092986239202,35.55392888067372 -41.36644909615242,35.762399973159305 -41.11869150846158,35.966965901908075 -40.86771947096725,36.16757516854145 -40.613596164537746,36.36417727074935 -40.35638556335647,36.556722715003936 -40.096152418816764,36.745163029019295 -39.83296224322111,36.929450773954116 -39.56688129328873,37.10953955635412 -39.297976553475856,37.28538403983141 -39.02631571911268,37.45693995647766 -38.75196717936147,37.62416411800829 -38.475,37.78701442663488 -38.19548390603449,37.945449885663145 -37.913489264146826,38.09943060981354 -37.62908706498006,38.2489178352622 -37.34234890526692,38.393873929399554 -37.05334696980573,38.53426240030408 -36.762154013288196,38.670047905928996 -36.468843341983934,38.80119626299941 -36.17348879528585,38.92767445561777 -35.87616472712163,39.04945064357547 -35.576945987235405,39.16649417036841 -35.2759079023448,39.27877557091465 -34.97312625717778,39.38626657897204 -34.668677275394366,39.48894013425415 -34.36263760039756,39.586770389242496 -34.05508427603895,39.679732715693575 -33.74609472722321,39.76780371083883 -33.43574674041685,39.85096120327621 -33.1241184440659,39.92918425855172 -32.81128828892744,40.00245318442949 -32.49733502832011,40.070749535849274 -32.182337698298305,40.13405611956981 -31.86637559775534,40.19235699849721 -31.549528268460335,40.24563749569699 -31.231875475034023,40.29388419808889 -30.913497184868422,40.3370849598236 -30.594473547995474,40.37522890534039 -30.274884876909695,40.408306432104965 -29.954811626349965,40.43630921302683 -29.634334373045434,40.45923019855565 -29.31353379543078,40.47706361845591 -28.99249065333587,40.489804983259496 -28.67128576765486,40.497451085395966 -28.35,40.5 28.349999999999994,40.5 " style="stroke:black;fill:none;stroke-width:2.0;stroke-linecap:round;stroke-linejoin:round;" /><polygon points="-72.9,121.5 -64.80000000000001,89.1 64.79999999999998,89.1 48.59999999999999,153.9 -81.00000000000001,153.9 " style="stroke:black;fill:none;stroke-width:2.0;stroke-linecap:round;stroke-linejoin:round;" /><polygon points="-97.20000000000003,396.9 -16.20000000000002,315.9 64.79999999999997,396.9 -16.20000000000002,477.9 " style="stroke:black;fill:none;stroke-width:2.0;stroke-linecap:round;stroke-linejoin:round;" /><path d="M 0.0,40.5 L -4.463837582892102e-15,64.8 L -7.625095819546128e-15,81.0" style="stroke:black;fill:none;stroke-width:2.0;stroke-linecap:round;stroke-linejoin:round;" /><path d="M -8.606050635848877e-15 87.1 L -2.4300000000000077 81.0 L 2.4299999999999917 81.0 Z" style="stroke:black;fill:black;stroke-linecap:butt;stroke-linejoin:miter;" /><path d="M -16.200000000000006,153.9 L -16.20000000000001,178.2 L -16.200000000000014,194.39999999999998" style="stroke:black;fill:none;stroke-width:2.0;stroke-linecap:round;stroke-linejoin:round;" /><path d="M -16.200000000000014 200.5 L -18.630000000000013 194.39999999999998 L -13.770000000000014 194.39999999999998 Z" style="stroke:black;fill:black;stroke-linecap:butt;stroke-linejoin:miter;" /><path d="M -81.00000000000001,234.89999999999998 L -81.00000000000001,202.5 L 48.59999999999998,202.5 L 48.59999999999998,267.3 L -81.00000000000001,267.3 L -81.00000000000001,234.89999999999998" style="stroke:black;fill:none;stroke-width:2.0;stroke-linecap:round;stroke-linejoin:round;" /><path d="M -16.200000000000014,267.3 L -16.200000000000017,291.59999999999997 L -16.20000000000002,307.8" style="stroke:black;fill:none;stroke-width:2.0;stroke-linecap:round;stroke-linejoin:round;" /><path d="M -16.20000000000002 313.9 L -18.63000000000002 307.79999999999995 L -13.770000000000021 307.79999999999995 Z" style="stroke:black;fill:black;stroke-linecap:butt;stroke-linejoin:miter;" /><path d="M -16.20000000000002,477.9 L -16.200000000000024,502.2 L -16.200000000000028,518.4" style="stroke:black;fill:none;stroke-width:2.0;stroke-linecap:round;stroke-linejoin:round;" /><path d="M -16.200000000000028 524.5 L -18.630000000000027 518.4000000000001 L -13.770000000000028 518.4000000000001 Z" style="stroke:black;fill:black;stroke-linecap:butt;stroke-linejoin:miter;" /><path d="M -97.20000000000003,558.9 L -97.20000000000003,526.5 L 64.79999999999997,526.5 L 64.79999999999997,591.3 L -97.20000000000003,591.3 L -97.20000000000003,558.9" style="stroke:black;fill:none;stroke-width:2.0;stroke-linecap:round;stroke-linejoin:round;" /><path d="M -16.200000000000028,591.3 L -16.20000000000003,615.6 L -16.200000000000035,631.8" style="stroke:black;fill:none;stroke-width:2.0;stroke-linecap:round;stroke-linejoin:round;" /><path d="M -16.200000000000035 637.9 L -18.630000000000035 631.8000000000001 L -13.770000000000035 631.8000000000001 Z" style="stroke:black;fill:black;stroke-linecap:butt;stroke-linejoin:miter;" /><path d="M 32.39999999999996,672.3 L 32.00099467180973,668.156779961422 L 30.810530343696794,664.0815914813319 L 28.84815440701662,660.1413490419083 L 26.146089020396687,656.4007513150723 L 22.74870202278266,652.9212188120846 L 18.71177841474954,649.759885360447 L 14.10160437033442,646.9686599680358 L 8.993878819891478,644.5933744786267 L 3.472470475748313,642.6730310142876 L -2.3719592897318473,641.2391615616121 L -8.443445101377801,640.3153102173718 L -14.642293330017589,639.9166465950977 L -20.866719059113358,640.049716740446 L -27.01451739027691,640.7123356453089 L -32.98474164487558,641.8936231255877 L -38.67936090570462,643.5741824735147 L -44.004869681937464,645.7264189510587 L -48.873823266700015,648.3149928947597 L -53.20627357673995,651.2973999920276 L -56.931081897743475,654.6246692007783 L -59.9870869800576,658.2421668525911 L -62.324109304718526,662.0904937360347 L -63.90377502976581,666.1064604300755 L -64.70014608766638,670.2241248726249 L -64.70014608766638,674.3758751273751 L -63.90377502976582,678.4935395699245 L -62.32410930471854,682.5095062639652 L -59.987086980057605,686.3578331474089 L -56.93108189774349,689.9753307992218 L -53.20627357673998,693.3026000079724 L -48.87382326670005,696.2850071052401 L -44.00486968193749,698.8735810489413 L -38.679360905704634,701.0258175264852 L -32.98474164487561,702.7063768744122 L -27.014517390276925,703.887664354691 L -20.8667190591134,704.550283259554 L -14.64229333001761,704.6833534049023 L -8.443445101377844,704.2846897826281 L -2.371959289731876,703.3608384383878 L 3.472470475748256,701.9269689857123 L 8.99387881989145,700.0066255213732 L 14.101604370334405,697.6313400319641 L 18.711778414749496,694.8401146395529 L 22.748702022782645,691.6787811879153 L 26.14608902039666,688.1992486849276 L 28.848154407016604,684.4586509580918 L 30.81053034369678,680.518408518668 L 32.000994671809714,676.4432200385779 L 32.39999999999996,672.3" style="stroke:black;fill:none;stroke-width:2.0;stroke-linecap:round;stroke-linejoin:round;" /><path d="M 64.79999999999997,396.9 L 113.39999999999996,396.9 L 153.89999999999998,396.9" style="stroke:black;fill:none;stroke-width:2.0;stroke-linecap:round;stroke-linejoin:round;" /><path d="M 159.99999999999997 396.9 L 153.89999999999995 399.33 L 153.89999999999995 394.46999999999997 Z" style="stroke:black;fill:black;stroke-linecap:butt;stroke-linejoin:miter;" /><path d="M 161.99999999999997,396.9 L 161.99999999999997,364.5 L 324.0,364.5 L 324.0,429.29999999999995 L 161.99999999999997,429.29999999999995 L 161.99999999999997,396.9" style="stroke:black;fill:none;stroke-width:2.0;stroke-linecap:round;stroke-linejoin:round;" /><path d="M 242.99999999999997,429.29999999999995 L 242.99999999999994,550.8 L 242.99999999999991,664.1999999999999" style="stroke:black;fill:none;stroke-width:2.0;stroke-linecap:round;stroke-linejoin:round;" /><path d="M 242.99999999999991 670.3 L 240.5699999999999 664.2 L 245.42999999999992 664.2 Z" style="stroke:black;fill:black;stroke-linecap:butt;stroke-linejoin:miter;" /><path d="M 242.99999999999991,672.3 L 138.5099999999999,672.3 L 42.11999999999993,672.3" style="stroke:black;fill:none;stroke-width:2.0;stroke-linecap:round;stroke-linejoin:round;" /><path d="M 36.01999999999993 672.3 L 42.119999999999926 669.87 L 42.119999999999926 674.7299999999999 Z" style="stroke:black;fill:black;stroke-linecap:butt;stroke-linejoin:miter;" /><text x="0.0" y="12.550000000000002" fill="black" font-size="14.0" font-family="sans" text-anchor="middle" transform="rotate(0 0.0 18.150000000000002)"><tspan x="0.0" dy="11.200000000000001">Start</tspan></text><text x="-8.100000000000009" y="105.39999999999998" fill="black" font-size="14.0" font-family="sans" text-anchor="middle" transform="rotate(0 -8.100000000000009 119.39999999999999)"><tspan x="-8.100000000000009" dy="14.0">User input string:</tspan><tspan x="-8.100000000000009" dy="14.0"> string_a</tspan></text><text x="-16.200000000000014" y="218.79999999999998" fill="black" font-size="14.0" font-family="sans" text-anchor="middle" transform="rotate(0 -16.200000000000014 232.79999999999998)"><tspan x="-16.200000000000014" dy="14.0">Reverse the string:</tspan><tspan x="-16.200000000000014" dy="14.0"> string_a_reversed</tspan></text><text x="-11.988000000000024" y="480.01199999999994" fill="black" font-size="14" font-family="sans" text-anchor="start" transform="rotate(0 -11.988000000000024 480.01199999999994)"><tspan x="-11.988000000000024" dy="11.200000000000001">True</tspan></text><text x="69.01199999999996" y="379.38800000000003" fill="black" font-size="14" font-family="sans" text-anchor="start" transform="rotate(0 69.01199999999996 390.588)"><tspan x="69.01199999999996" dy="11.200000000000001">False</tspan></text><text x="-16.20000000000002" y="366.79999999999995" fill="black" font-size="14.0" font-family="sans" text-anchor="middle" transform="rotate(0 -16.20000000000002 394.79999999999995)"><tspan x="-16.20000000000002" dy="14.0">CONDITION: </tspan><tspan x="-16.20000000000002" dy="14.0"> string_a</tspan><tspan x="-16.20000000000002" dy="14.0"> == </tspan><tspan x="-16.20000000000002" dy="14.0">string_a_reversed?</tspan></text><text x="-16.200000000000028" y="542.8000000000001" fill="black" font-size="14.0" font-family="sans" text-anchor="middle" transform="rotate(0 -16.200000000000028 556.8000000000001)"><tspan x="-16.200000000000028" dy="14.0">Print statement:</tspan><tspan x="-16.200000000000028" dy="14.0"> string_a is a palindrome.</tspan></text><text x="-16.200000000000035" y="664.6" fill="black" font-size="14.0" font-family="sans" text-anchor="middle" transform="rotate(0 -16.200000000000035 670.2)"><tspan x="-16.200000000000035" dy="11.200000000000001">End</tspan></text><text x="242.99999999999997" y="373.79999999999995" fill="black" font-size="14.0" font-family="sans" text-anchor="middle" transform="rotate(0 242.99999999999997 394.79999999999995)"><tspan x="242.99999999999997" dy="14.0">Print statement:</tspan><tspan x="242.99999999999997" dy="14.0"> string_a is not</tspan><tspan x="242.99999999999997" dy="14.0"> a palindrome.</tspan></text></svg>